<svg width="128" height="128" viewBox="0 0 120 138" fill="none" xmlns="http://www.w3.org/2000/svg"><path d="M15.92 51.677l1.733 1.574 38.343 22.07L15.92 51.678zm18.966 36.29l.99.15-18.223-10.326 17.233 10.175zM104.31 77.29l-1.733.57-18.11 10.257 19.843-10.827zm0-25.585l-1.733 1.573v24.582l1.733-26.155zM31.096 27.86l1.137 2.508.099.042-1.236-2.55zm57.995 0l-1.136 2.508h.028l1.108-2.508zm-.058.03l-1.134 2.506.056-.028 1.078-2.479zM15.92 77.218l1.733.572V53.25L15.92 77.218zm18.966 31.134l.99-.649V88.118l-.99 20.235zm20.941 12.062l.169-1.121-20.12-11.59 19.952 12.711zM80.442 32.78l-.797 2.315 19.01 10.944-18.213-13.258zM60.086 44.45l.001 1.857 19.558-11.21-19.559 9.353zm-20.327-11.64l.798 2.314 19.53 11.183L39.76 32.81zM20.047 44.172l1.57 1.868 18.94-10.916-20.51 9.048zm44.356 30.506l-.168.672 38.343-22.07-38.175 21.398zm21.059 33.603l-.994-.646-20.233 11.646 21.227-11zm0-20.314l-.994.152v19.516l.994-19.668zM31.198 27.903l-.102-.044 1.236 2.55-1.134-2.506zm57.922-.044h-.029l-1.108 2.508 1.137-2.508zm-.029 0l-.058.03-1.078 2.478 1.136-2.508zM55.828 74.65L15.92 51.676l40.076 23.645-.169-.674zM15.92 51.676v25.541l1.733-23.967-1.733-1.574zm0 25.541l18.966 10.748-17.233-10.175-1.733-.573zm18.966 10.748v20.387l.99-20.235-.99-.152zm65.342-43.795l-19.786-11.39 18.213 13.258 1.573-1.868zm-19.786-11.39L60.086 44.449l19.56-9.354.796-2.314zM60.086 44.449l-20.327-11.64 20.328 13.497-.001-1.857zm-20.327-11.64L20.047 44.172l20.51-9.048-.798-2.313zm64.552 18.897L64.403 74.677l38.175-21.398 1.733-1.573zm-18.85 56.574V87.966l-.993 19.668.994.646zm0-20.314l18.85-10.675-19.843 10.827.994-.152zm18.85-10.675V51.706l-1.733 26.155 1.733-.57zm-69.425 31.062l20.941 12.062-19.952-12.711-.99.649zM64.403 120.4l21.059-12.12-21.227 11 .168 1.12zM29.861 25.138l1.235 2.721.102.044-1.337-2.765zm60.463 0l-1.233 2.721h.03l1.203-2.721zm-.061.03l-1.23 2.72.058-.029 1.172-2.69zM14.04 49.97l1.88 1.708 39.907 22.971L14.04 49.97zm0 26.628l1.88.621v-25.54l-1.88 24.919zm19.773 11.205l1.073.164L15.92 77.218l17.893 10.584zm0 21.254l1.073-.703V87.966l-1.073 21.09zm47.494-78.787l-.865 2.512 19.786 11.39L81.307 30.27zM60.085 42.433l.001 2.016L80.442 32.78l-20.357 9.652zM38.893 30.3l.866 2.51 20.327 11.64-21.193-14.15zm-20.55 11.845l1.704 2.027L39.759 32.81l-21.417 9.334zm46.242 31.804l-.182.73 39.908-22.972-39.726 22.242zM86.54 87.802l-1.078.164v20.314l1.078-20.478zm19.651-11.129l-1.88.618-18.85 10.675 20.73-11.293zm0-26.673l-1.88 1.706v25.585L106.191 50zM55.645 121.63l.182-1.216-20.941-12.062 20.76 13.278zM86.54 108.98l-1.078-.7-21.059 12.12 22.137-11.42zM29.968 25.184l-.107-.046 1.337 2.765-1.23-2.72zm60.386-.046h-.03l-1.204 2.721 1.234-2.721zm-.03 0l-.061.03-1.172 2.691 1.233-2.721zM33.813 87.802v21.254l1.073-21.09-1.073-.164zm21.832-13.885L14.04 49.97l41.788 24.68-.183-.731zM14.04 49.97v26.628l1.88-24.92-1.88-1.708zm0 26.628l19.773 11.205L15.92 77.218l-1.88-.621zm19.773 32.459l21.832 12.575-20.76-13.278-1.072.703zm68.121-66.912L81.307 30.269l18.921 13.902 1.706-2.027zM81.307 30.269L60.085 42.433l20.357-9.652.865-2.512zM60.085 42.433L38.893 30.3l21.193 14.15-.001-2.016zM38.893 30.3l-20.55 11.845 21.416-9.334-.866-2.51zM106.191 50L64.585 73.949l39.726-22.242 1.88-1.706zm-41.606 71.617L86.54 108.98 64.403 120.4l.182 1.216zM86.54 108.98V87.802l-1.078 20.478 1.078.7zm0-21.178l19.651-11.129-20.73 11.293 1.08-.164zm19.651-11.129V50l-1.88 27.291 1.88-.618zM28.517 22.175l1.344 2.963.107.046-1.451-3.009zm63.149 0l-1.342 2.963h.03l1.312-2.963zm-.064.032l-1.34 2.962.062-.031 1.278-2.931zM32.644 109.82l1.169-.765V87.802l-1.17 22.019zm22.802 13.135l.2-1.325-21.833-12.575 21.633 13.9zm32.268-13.214l-1.174-.762-21.955 12.636 23.13-11.874zm0-22.118l-1.174.178v21.178l1.174-21.356zM11.993 48.11l2.047 1.86 41.605 23.948L11.992 48.11zm0 27.81l2.047.677V49.969l-2.047 25.952zm20.65 11.704l1.17.178L14.04 76.597l18.604 11.027zm49.606-60.09l-.942 2.735 20.627 11.875-19.685-14.61zM60.083 40.239l.002 2.194L81.307 30.27l-21.224 9.97zM37.95 27.566l.943 2.733 21.192 12.134L37.95 27.566zm-21.464 12.37l1.856 2.208 20.551-11.845-22.407 9.638zm48.298 33.218l-.199.794L106.191 50 64.784 73.154zM108.238 76l-2.047.673-19.65 11.13L108.237 76zm0-27.859L106.191 50v26.673l2.047-28.532zm-79.61-25.918l-.111-.048 1.45 3.009-1.339-2.961zm63.07-.048h-.032l-1.312 2.963 1.344-2.963zm-.032 0l-.064.032-1.278 2.931 1.342-2.963zm-36.22 50.947L11.993 48.11l43.652 25.808-.199-.796zM11.993 48.11v27.81l2.047-25.95-2.047-1.86zm0 27.81l20.65 11.704L14.04 76.597l-2.047-.676zm20.65 11.704v22.197l1.17-22.019-1.17-.178zm0 22.197l22.803 13.135-21.633-13.9-1.17.765zm71.149-69.885L82.249 27.534l19.685 14.61 1.858-2.207zM82.249 27.534L60.083 40.239l21.224-9.97.942-2.735zM60.083 40.239L37.95 27.566l22.135 14.867-.002-2.194zM37.95 27.566l-21.464 12.37L38.893 30.3l-.943-2.733zm70.288 20.575L64.784 73.154 106.191 50l2.047-1.859zM64.784 122.94l22.93-13.198-23.129 11.874.2 1.324zm22.93-13.198V87.624L86.54 108.98l1.174.762zm0-22.118L108.238 76 86.54 87.802l1.174-.178zM108.238 76V48.141l-2.047 28.532 2.047-.673zm-81.19-57.064l1.469 3.24.111.047-1.58-3.287zm66.085 0l-1.467 3.24h.032l1.435-3.24zm-.067.034l-1.464 3.237.064-.032 1.4-3.205zM9.755 46.077l2.237 2.033 43.454 25.012L9.755 46.077zm0 29.104l2.237.74V48.11L9.755 75.18zM31.366 87.43l1.278.195L11.993 75.92l19.373 11.507zm0 23.229l1.278-.837V87.624l-1.277 23.034zm23.863 13.745l.217-1.447-22.802-13.135 22.585 14.582zm28.049-99.859l-1.03 2.99 21.544 12.403-20.514-15.393zM60.082 37.84l.001 2.399L82.25 27.534 60.082 37.84zM36.919 24.578l1.031 2.988 22.133 12.673L36.92 24.578zM14.457 37.524l2.03 2.413L37.95 27.566l-23.493 9.958zm50.544 34.762l-.217.868 43.454-25.013-43.237 24.145zm23.996 38.289l-1.283-.833-22.93 13.198 24.213-12.365zm0-23.147l-1.283.196v22.118l1.284-22.314zm21.479-12.164l-2.238.736-20.524 11.624 22.762-12.36zm0-29.154l-2.238 2.031V76l2.238-29.89zM27.164 18.986l-.117-.05 1.581 3.287-1.464-3.237zm66.002-.05h-.033l-1.435 3.24 1.468-3.24zm-.033 0l-.067.034-1.4 3.205 1.467-3.239zM55.229 72.252L9.755 46.077l45.691 27.045-.217-.87zM9.755 46.077v29.104l2.237-27.071-2.237-2.033zm0 29.104L31.366 87.43 11.993 75.92l-2.238-.74zM31.366 87.43v23.229l1.278-23.034-1.277-.195zm0 23.229l23.863 13.745-22.585-14.582-1.277.837zm74.457-73.134l-22.545-12.98 20.514 15.393 2.031-2.413zm-22.545-12.98L60.082 37.84l22.167-10.306 1.029-2.99zM60.082 37.84L36.919 24.578l23.164 15.66-.001-2.398zM36.919 24.578L14.457 37.524l23.493-9.959-1.03-2.987zm73.557 21.532L65.001 72.286l43.237-24.145 2.238-2.03zm-45.475 78.277l23.996-13.812-24.213 12.365.217 1.447zm23.996-13.812V87.428l-1.283 22.314 1.284.833zm0-23.147l21.479-12.164-22.762 12.36 1.284-.195zm21.479-12.164V46.11L108.238 76l2.238-.736z" fill="#8700FF" class="icon-main"/><path d="M9.736 45.928L0 34.5v69l9.736-57.572zm21.57 64.372V87.146L9.736 74.938l21.57 35.362zm33.57-38.248l-9.753-.033V124l9.754-51.95zm45.388 2.969L88.827 87.146v23.072l21.437-35.197zm-55.14-3.002l9.753.033 45.387-26.09-55.14 26.057zM0 34.5l9.736 11.428 45.387 26.09L0 34.5zm60.033 29.11L14.43 37.402 0 34.5l60.033 29.11zM36.85 24.497l23.118 13.22 23.15-13.253-46.268.033zM0 34.5l14.43 2.903 22.419-12.905L0 34.5zm27.03-15.625h-.034l.116.05-.083-.05zm65.924 0h.034L60 0l32.954 18.875zM9.736 74.939v-29.01L0 103.5l9.736-28.562zm55.14 49.046V72.052L55.124 124l9.754-.017zm-4.843-60.375L0 34.5l55.123 37.519 4.91-8.41zm-32.92-44.684L0 34.5l36.849-10.002-9.737-5.573zM60 0L27.03 18.875l.082.05L60 0zm32.888 18.909l.066-.034L60 0l32.888 18.909zM31.306 110.3L9.736 74.938 0 103.5l31.306 6.8zm28.727-46.69l-4.91 8.409 55.141-26.058-50.23 17.648zm-32.92-44.685l9.736 5.573 46.269-.033-56.006-5.54zm65.775-.016L60 0 27.112 18.925l65.776-.016zM31.306 110.3L0 103.5 60 138l-28.694-27.7zm74.314-72.897L60.033 63.609l50.231-17.648-4.644-8.558zM92.888 18.909l-65.776.016 56.006 5.54 9.77-5.556zM55.123 124L31.307 110.3 60 138l-4.877-13.999zM92.888 18.909l-9.77 5.556 22.502 12.938-12.732-18.494zM64.877 123.984l-9.754.017L60 138l4.877-14.016zM120 34.5L92.888 18.909l12.732 18.494L120 34.5zm-55.123 89.484L60 138l60-34.5-55.123 20.484zM120 34.5l-14.38 2.903 4.644 8.558L120 34.5zm-31.173 75.718l-23.95 13.766L120 103.5l-31.173 6.718zM120 34.5l-9.736 11.461v29.06L120 34.5zm-9.736 40.52l-21.437 35.198L120 103.5l-9.736-28.48zM120 103.5v-69l-9.736 40.52L120 103.5z" fill="#ffffff" class="icon-base"/></svg>